<svg xmlns="http://www.w3.org/2000/svg"><symbol id="sprite-camera"><path d="M27.195 9.069h-4.41l-2.564-2.57-.008-.008-.005-.004a2.123 2.123 0 0 0-1.499-.616h-5.331c-.62 0-1.172.268-1.562.689l-.002-.006L9.303 9.07h-4.5a2.132 2.132 0 0 0-2.132 2.133v12.795c0 1.178.955 2.133 2.132 2.133h22.391a2.133 2.133 0 0 0 2.133-2.133V11.203a2.133 2.133 0 0 0-2.133-2.133zm1.067 14.928c0 .587-.479 1.066-1.067 1.066H4.804a1.068 1.068 0 0 1-1.066-1.066V11.202c0-.588.479-1.066 1.066-1.066h4.942l1.604-1.607.026.078L12.6 7.283c.207-.224.484-.347.779-.347h5.331c.282 0 .548.109.757.316l2.876 2.883h4.852c.588 0 1.067.478 1.067 1.066v12.795z"/><path d="M16 10.136a6.932 6.932 0 1 0 .001 13.86A6.932 6.932 0 0 0 16 10.137zm0 12.795c-3.234 0-5.864-2.631-5.864-5.865s2.631-5.863 5.864-5.863 5.864 2.63 5.864 5.863A5.871 5.871 0 0 1 16 22.931z"/><path d="M16 12.268a4.799 4.799 0 1 0 .001 9.595A4.799 4.799 0 0 0 16 12.268zm0 8.53c-2.058 0-3.732-1.675-3.732-3.733s1.674-3.731 3.732-3.731 3.732 1.673 3.732 3.731-1.674 3.733-3.732 3.733z"/></symbol><symbol id="sprite-clock"><path fill-rule="evenodd" fill="#FFF" d="M15.041 29.27C7.125 29.27.707 22.852.707 14.933.707 7.015 7.125.596 15.041.596c7.917 0 14.334 6.419 14.334 14.337 0 7.919-6.417 14.337-14.334 14.337zm0-26.882c-6.916 0-12.542 5.628-12.542 12.545s5.626 12.573 12.542 12.573c6.916 0 12.542-5.656 12.542-12.573 0-6.917-5.626-12.545-12.542-12.545zm3.857 17.678l-4.434-4.435c-.014-.014-.018-.033-.031-.047a.89.89 0 0 1-.288-.651v-8.96a.896.896 0 1 1 1.792 0v8.596l4.229 4.23a.897.897 0 0 1-1.268 1.267z"/></symbol><symbol id="sprite-dribbble" viewBox="0 0 92 92"><path d="M43.8 33.1a237.32 237.32 0 0 0-14.59-22.64A39.35 39.35 0 0 0 7.53 37.89 145.28 145.28 0 0 0 43.8 33.1zm4.89 13.2l1.55-.47c-1-2.23-2.06-4.47-3.19-6.68a144 144 0 0 1-40.33 5.6v1.24A39.14 39.14 0 0 0 16.8 72.27s10.72-19.12 31.91-26zM21.83 76.97c-.29-.23-.6-.44-.89-.68zM36.56 7.86h-.1.1zm35.36 8.66a39.24 39.24 0 0 0-35.2-8.69 200.62 200.62 0 0 1 14.69 22.92c14.83-5.56 20.39-14.07 20.53-14.24zM45.97 92a46 46 0 1 1 46-46A46 46 0 0 1 46 92zm6.68-39.57c-23.06 8-30.67 24.19-30.82 24.52a39.23 39.23 0 0 0 39.47 5.22 163.33 163.33 0 0 0-8.39-29.83zm1.77-15.83c.92 1.87 1.8 3.78 2.61 5.7q.44 1 .85 2a91 91 0 0 1 27.36 1.28 39.1 39.1 0 0 0-8.93-24.56c-.06.14-6.36 9.25-21.86 15.57zm5.85 13.93a169.78 169.78 0 0 1 7.65 28.06A39.29 39.29 0 0 0 84.8 52.27a57 57 0 0 0-24.5-1.75z"/></symbol><symbol id="sprite-eye" viewBox="0 0 100 50"><path fill="#fff" d="M50 0C17.2 0 0 24.17 0 28s17.2 28 50 28 50-24.17 50-28S82.81 0 50 0zm0 49.54c-12.27 0-22.22-9.64-22.22-21.54S37.73 6.46 50 6.46 72.22 16.1 72.22 28 62.28 49.53 50 49.53zM50 28c-2-2.23 3.32-10.77 0-10.77A10.77 10.77 0 1 0 61.11 28c0-2.73-9.38 1.9-11.11 0z"/></symbol><symbol id="sprite-facebook" viewBox="0 0 50 90"><path d="M50 15.65H35.71c-1.69 0-3.57 2.22-3.57 5.19v10.31H50v14.7H32.14V90H15.28V45.85H0v-14.7h15.29V22.5C15.29 10.09 23.9 0 35.72 0H50z"/></symbol><symbol id="sprite-feather" viewBox="0 0 70 100"><path d="M6.27 98.81c1.53-5 3.85-12.06 7-22.25C26.8 74.37 32.4 78.3 41 62.63c-7 2.18-15.39-4-14.93-6.74s19.56 1.94 32.08-16.19c-15.77 3.55-20.82-4.26-18.78-5.44 4.7-2.73 18.63-1.13 26.06-8.52 3.83-3.8 5.62-13 4.07-16.34-1.87-4-13.28-9.92-19.57-9.37S33.71 24.48 30.79 24.3s-3.51-10.7 1.59-20.47c-5.39 2.43-15.25 10-18.35 16.46-5.76 12 .54 39.62-1.48 40.6S3.72 48.23 1.69 42.04c-2.77 9.48-2.84 19 5.27 31.6a88.56 88.56 0 0 0-5 22.65c-.1 3.88 3.64 4.71 4.31 2.52z" fill="#4c76ff"/></symbol><symbol id="sprite-friends"><path fill-rule="evenodd" fill="#FFF" d="M27.448 24.682h-2.942c-.209-.781-.373-1.364-.913-1.772h3.579v-1.575a2.537 2.537 0 0 0-.41-.229 2.447 2.447 0 0 1-.163-.079l-5.665-3.089a1.775 1.775 0 0 1-.918-1.408 1.777 1.777 0 0 1 .671-1.541c1.53-1.202 2.044-3.852 2.044-5.239V6.009c0-1.303-2.35-3.492-4.911-3.492a5.522 5.522 0 0 0-3.398 1.159c-.696-.221-1.5-.222-2.23-.267C13.472 1.913 15.67.746 17.82.746c3.308 0 6.685 2.786 6.685 5.263V9.75c0 1.796-.647 5.002-2.722 6.632l5.665 3.09s1.497.616 1.497 1.496v2.218c0 .826-.671 1.496-1.497 1.496zM18.299 10.42v3.741c0 1.797-.563 5.002-2.638 6.633l5.582 3.089s1.497.616 1.497 1.496v2.245c0 .827-.671 1.497-1.497 1.497H2.071c-.825 0-1.496-.67-1.496-1.497v-2.245c0-.83 1.496-1.496 1.496-1.496l5.727-3.103C5.702 19.1 5.01 15.795 5.01 14.161V10.42c0-2.476 3.381-5.236 6.688-5.236 3.308 0 6.601 2.76 6.601 5.236zm-1.773 0c0-1.303-2.267-3.464-4.828-3.464-2.514 0-4.915 2.192-4.915 3.464v3.741c0 1.407.637 4.045 2.124 5.236a1.773 1.773 0 0 1-.264 2.94L2.916 25.44c-.039.023-.081.042-.123.061a2.96 2.96 0 0 0-.445.264v1.584h18.619v-1.603a2.537 2.537 0 0 0-.41-.229 2.23 2.23 0 0 1-.163-.079l-5.582-3.089a1.775 1.775 0 0 1-.918-1.407 1.775 1.775 0 0 1 .671-1.541c1.53-1.203 1.961-3.853 1.961-5.24V10.42z"/></symbol><symbol id="sprite-google+" viewBox="0 0 89.61 88"><path d="M4.75 21.94c0 7.47 2.49 12.86 7.41 16a21.12 21.12 0 0 0 11.13 3h1.39a14.35 14.35 0 0 0 2.95 10h-.17c-6.45 0-27.47 1.35-27.47 18.63 0 17.59 19.31 18.48 23.18 18.48h1.27a35.76 35.76 0 0 0 14.88-3.21c7.74-3.76 11.67-10.29 11.67-19.42 0-8.83-6-14.08-10.35-17.92-2.67-2.34-5-4.36-5-6.32s1.68-3.5 3.81-5.41c3.45-3.08 6.69-7.47 6.69-15.75 0-7.29-.95-12.18-6.77-15.28a20.61 20.61 0 0 1 3.81-.68c3.15-.43 7.77-.92 7.77-3.5v-.5h-23c-.18-.05-23.2.8-23.2 21.88zM41.87 67c.44 7-5.58 12.22-14.61 12.88S10.53 76.42 10.09 69.4a11.61 11.61 0 0 1 4.18-9.32 19 19 0 0 1 11.39-4.64c.52 0 1-.05 1.55-.05 8.49.05 14.24 4.99 14.66 11.62zm-6-49.88c2.26 7.93-1.15 16.23-6.58 17.76a7.11 7.11 0 0 1-1.92.26c-5 0-9.9-5-11.72-12a17.3 17.3 0 0 1 .23-10.57c1.15-3.22 3.21-5.39 5.81-6.12a7.07 7.07 0 0 1 1.92-.27c5.99.06 9.87 2.55 12.26 10.95zM74.6 34.44v-15h-9.5v15h-15v9.5h15v15h9.5v-15h15v-9.5z"/></symbol><symbol id="sprite-heart" viewBox="0 0 86 70"><path d="M78.95 5.76a22.78 22.78 0 0 0-30.27 0L43 10.97l-5.68-5.21a22.78 22.78 0 0 0-30.27 0 20.84 20.84 0 0 0 0 31.25l35.95 33 35.95-33a20.84 20.84 0 0 0 0-31.25zm-5.32 26.12L43.01 60.45 12.39 31.88a13.69 13.69 0 0 1-4.28-10.5c0-3.93.69-7.16 3.78-10A15.15 15.15 0 0 1 22.21 7.5c3.92 0 7.59 2.38 10.32 4.88l10.5 9.13 10.49-9.13c2.73-2.51 6.39-4.88 10.32-4.88a15.16 15.16 0 0 1 10.32 3.88c3.09 2.83 3.78 6.06 3.78 10a13.7 13.7 0 0 1-4.32 10.5z"/></symbol><symbol id="sprite-mail"><path d="M28.244 7.47H2.672v17.06h26.656V7.47h-1.084zm-1.067 1.066L16.879 18.834c-.47.47-1.289.47-1.759 0L4.82 8.536h22.356zm-23.439.425l6.923 6.922-6.923 6.923V8.96zm.851 14.503l6.827-6.826 2.951 2.95c.436.436 1.016.677 1.633.677s1.197-.241 1.633-.677l2.951-2.951 6.826 6.826H4.588zm23.673-.657l-6.923-6.924 6.923-6.924v13.848z"/></symbol><symbol id="sprite-megaphone" viewBox="0 0 105 105"><path d="M79.12 30.15C71.2 11.73 58.46-2.3 52.01.32 41.06 4.77 58.53 26.14 4.78 47.99c-4.64 1.89-5.82 9.44-3.88 14s8.29 9 12.94 7.12c.8-.33 3.75-1.28 3.75-1.28 3.32 4.45 6.79 1.81 8 4.64l5.79 13.3c1.1 2.51 3.58 4.84 5.38 4.15l10.25-3.9a3.38 3.38 0 0 0 2.18-4.62c-.77-1.77-3.93-2.29-4.83-4.36s-3.85-8.7-4.7-10.78c-1.15-2.84 1.29-5.15 4.85-5.52 24.47-2.55 29 12.56 37.37 9.17 6.43-2.63 5.15-21.34-2.76-39.76zm-2.76 29.88c-1.43.58-11.06-7-17.21-21.33s-5.38-27.41-3.95-28 10.82 8.58 17 22.9 5.59 25.85 4.16 26.43z" fill="#4c76ff"/></symbol><symbol id="sprite-music"><path d="M28.795 1.455L11.202 7.679v15.417a4.519 4.519 0 0 0-3.465-1.615 4.533 4.533 0 0 0 0 9.065 4.53 4.53 0 0 0 4.527-4.454h.004V8.433l15.461-5.47v14.269a4.53 4.53 0 0 0-7.997 2.918 4.532 4.532 0 0 0 9.063 0c0-.086-.008-.17-.013-.254h.013V1.456zM7.737 29.479c-1.911 0-3.465-1.555-3.465-3.465s1.555-3.466 3.465-3.466 3.465 1.555 3.465 3.466a3.47 3.47 0 0 1-3.465 3.465zm16.526-5.865c-1.911 0-3.465-1.555-3.465-3.465s1.554-3.465 3.465-3.465c1.911 0 3.466 1.555 3.466 3.465s-1.555 3.465-3.466 3.465z"/></symbol><symbol id="sprite-my_logo" viewBox="0 0 127.3 130"><path d="M45.6 109.9c-.8-1.1-1.7-1.7-2.8-2.6-2.4-1.9-7.4-7.1-10-7.7.5 1.7 2.3 3.7 3.6 5.2l2.9 3.5c.5.6.7.9 1.1 1.2 1.4 1.2 2.8 2.9 4.3 4.2 1.9 1.5 4.5.9 7.2.5 9-1.2 31.5-2.7 38.2-4.5 2.2-.6 4.1-1.4 6-2.6 7.2-4.1 13.9-13.5 11.6-22.2-.9-3.5-2.8-7.2-4.7-10-.5-.7-.1-1-1.2-1.2-1 8.5-.7 9.6-2.6 17.5l-.7 2.2c-1.8 4.3-1.1 4.1-4.7 6.7-3.8 2.7-8.8 4-13.2 5.5-.1 0-.3.1-.5.2-7.8 2.8-26.5 4.3-34.5 4.1zm-20-26.6c1.1-.2.7 0 1.2-.5l2.5-2.3c3.1-2.9 8.1-6.9 8.8-11.1.7-4.1-.7-8.6-.2-12.7.5-3.7 4.9-6.6 7.5-9l6.5-4.9c.5-.3.6-.4 1-.7l11.4-6.7c.5-.2.8-.4 1-.6.9-.5 1.5-.7 2.4-1.1l6.5-3.4c.8-.5 1.5-.6 1.9-1.6-.9-.5-1.1-.5-2.9-.3-6 .3-15.6 3.1-20.9 6.4-2.3 1.4-7.5 5.8-9.4 7.6-1.3 1.2-2.4 2.3-3.5 3.5-2.2 2.4-4.3 5-5.7 7.8-4.6 9.5 5.4 10.4-2.8 21.6-.9 1.3-4.9 6.8-5.3 8zM97.9 63c2.2 1.3 4.5-1.8 5.7-3.5l2.5-3.7c1.5-2.7 1.9-5.4 2.5-8.1 1.2-5.9.3-15.6-1.5-21.3-.4-1.3-.8-2.7-1.3-4-1.5-4.3-4.7-9.2-7.6-12.8-.4-.5-.8-1-1.2-1.4-.7-.8-.4-.7-1.8-1 .2 2.1 2.4 7.3 2.9 9.6.3 1.2.5 2.2.8 3.4 3.7 13.8 4.2 14.9.8 28.4-.6 3-3 11.7-1.8 14.4zM75.7 37c3.9 2.5 5-1.3 7.9-6l2.9-4.7c2-2.8 4.2-6.4 6.4-9 .7-.8.5-.3.8-1.5-1 .3-4.7 2.8-5.8 3.6-4.2 3.3-12.3 11.8-12.2 17.6zM63.1 26.9c-.2-1.6-1.7-2.3-3.2-3.5l-7.4-4.8c-3.2-1.7-10-5.6-13.1-5.9.3 1.9 9.5 8.9 11.9 10.7l4.6 3.1c1.7 1 5 3.1 7.2.4zM55 73.7c3.8.1 16.7-.4 20.5-2.4.9-.5.3.1.8-.9-2.2-1.4-8.6-.2-11.3.1-2.3.4-9 1.2-10 3.2zM42.6 36.4c5.3.1 1.4-13.8 0-14.5-1.7.9-1.2 12.8 0 14.5zm-11 53.9c-1.3-1.6-6.1-1.6-8.1-1.5-.2 3.9 6.4 4.8 8.1 1.5z"/></symbol><symbol id="sprite-paper-plane"><path d="M12.379 19.737l4.766 9.591L29.326 2.672 2.673 15.464l9.706 4.273zm.283-1.039l-7.44-3.276 20.434-9.807-12.993 13.082zm4.444 8.168l-3.688-7.421L26.527 6.247l-9.421 20.619z"/></symbol><symbol id="sprite-pencil" viewBox="-20 -15 115 115"><path d="M71.81 6.19C64.6-1.03 59.18.06 59.18.06L33.92 25.32 5.05 54.19.05 78l23.81-5.05 28.87-28.87 25.26-25.26s1.04-5.41-6.18-12.63zM22.4 70.08l-8.12 1.75a19.77 19.77 0 0 0-8.11-8.11l1.75-8.12 2.35-2.35s4.42.09 9.4 5.08 5.08 9.41 5.08 9.41z" fill="#4c76ff"/></symbol><symbol id="sprite-rocket"><path fill-rule="evenodd" fill="#FFF" d="M22.928 8.964c-.527 1.419-1.064 2.38-2.537 3.689-1.046.931-3.57 2.107-5.26 3.052-.621.347-1.28.703-1.652.934v3.854a.742.742 0 0 1-.261.566l-2.766 2.752a.744.744 0 0 1-1.212-.394l-.909-3.844-1.687-1.871c-.809-.899-1.315-1.459-1.619-1.834L.571 14.849a.747.747 0 0 1-.392-1.224l2.736-2.966a.747.747 0 0 1 .559-.252h4.153c.259-.464.563-1.072.882-1.708.825-1.647 1.76-3.631 2.7-4.728 1.129-1.316 2.337-2.185 3.806-2.734C19.034-.264 23.213.041 23.213.041a.746.746 0 0 1 .69.699c.012.196.279 4.848-.975 8.224zm-.493-7.456c-1.3-.01-4.143.099-6.898 1.129-1.238.462-2.224 1.173-3.194 2.306-.821.958-1.752 2.932-2.499 4.425-.442.881-.823 1.642-1.151 2.177a.748.748 0 0 1-.636.356H3.81l-1.678 1.773 3.42.783a.748.748 0 0 1 .41.253c.159.182 2.233 2.483 3.606 4.005a.737.737 0 0 1 .172.328l.671 2.837 1.575-1.731v-3.903c0-.224.101-.437.275-.578.302-.247.991-.623 2.141-1.266 1.542-.862 4.072-2.042 4.997-2.865 1.253-1.113 1.669-1.855 2.129-3.093.88-2.367.931-5.559.907-6.936zm-5.97 8.94a2.998 2.998 0 0 1-2.995-2.995 2.999 2.999 0 0 1 2.995-2.995 2.999 2.999 0 0 1 2.994 2.995 2.998 2.998 0 0 1-2.994 2.995zm0-4.49c-.825 0-1.495.671-1.495 1.495 0 .824.67 1.495 1.495 1.495.824 0 1.494-.671 1.494-1.495 0-.824-.67-1.495-1.494-1.495zM2.384 17.782c.382-.19.777-.364 1.206-.693l.91 1.161c-.544.417-1.046.667-1.45.869-.961.479-1.441.749-1.516 3.268 2.611-.094 2.907-.745 3.376-1.72.183-.379.39-.81.723-1.263L6.74 20.41c-.274.455-.365.683-.527 1.02-.741 1.541-1.481 2.434-5.438 2.434l-.734.017-.013-.763c0-3.751.755-4.537 2.356-5.336z"/></symbol><symbol id="sprite-timer"><path d="M14.686 16.925c.021.026.05.048.073.073a1.591 1.591 0 0 0 2.84-.997c0-.47-.206-.887-.527-1.18-.042-.047-.08-.095-.142-.142l-6.463-4.918a.539.539 0 0 0-.754.754l4.972 6.41z"/><path d="M16 2.673c-.175 0-.346.02-.519.026v.553h-.015v5.816h1.066V3.766C23.046 4.048 28.261 9.419 28.261 16c0 6.761-5.5 12.261-12.262 12.261S3.737 22.761 3.737 16a12.22 12.22 0 0 1 3.596-8.666l-.758-.758A13.281 13.281 0 0 0 2.67 16c0 7.361 5.966 13.327 13.328 13.327S29.326 23.361 29.326 16 23.36 2.673 15.998 2.673z"/></symbol><symbol id="sprite-tools"><path d="M29.532 25.76l-5.655-5.655.754-.754-.754-.754-2.261 2.261-3.771-3.77 4.53-4.532a5.579 5.579 0 0 0 1.882.324 5.562 5.562 0 0 0 3.954-1.637 5.569 5.569 0 0 0 1.178-6.174l-.311-.722-2.43 2.43-1.956.027.026-1.866 2.477-2.477-.72-.312a5.576 5.576 0 0 0-2.229-.461 5.552 5.552 0 0 0-3.952 1.637 5.56 5.56 0 0 0-1.311 5.84l-4.529 4.529-6.409-6.408.754-.754-4.145-4.146L2.39 4.647l4.147 4.147.753-.754 6.409 6.408-4.529 4.529a5.57 5.57 0 0 0-1.888-.326 5.558 5.558 0 0 0-3.953 1.637 5.565 5.565 0 0 0-1.176 6.181l.312.72 2.477-2.477 1.865-.025-.027 1.956-2.43 2.43.722.311a5.59 5.59 0 0 0 2.221.458 5.551 5.551 0 0 0 3.952-1.636 5.565 5.565 0 0 0 1.314-5.833l4.532-4.532 3.771 3.769-2.263 2.263.754.754.754-.754 5.654 5.654c.503.504 1.174.781 1.885.781s1.381-.277 1.885-.781a2.668 2.668 0 0 0 0-3.769zM3.899 4.648l.754-.753 2.638 2.638-.754.754-2.639-2.639zm7.549 17.808a4.513 4.513 0 0 1-.955 4.999 4.491 4.491 0 0 1-3.198 1.324c-.347 0-.689-.039-1.021-.116l1.569-1.569.047-3.485-3.394.046-1.619 1.619a4.497 4.497 0 0 1 1.208-4.229 4.495 4.495 0 0 1 3.199-1.325c.626 0 1.233.125 1.806.373l.333.144L20.242 9.418l-.144-.333a4.505 4.505 0 0 1 .952-5.004 4.494 4.494 0 0 1 3.198-1.325c.35 0 .695.04 1.03.117L23.66 4.491l-.047 3.394 3.485-.047 1.57-1.57a4.504 4.504 0 0 1-1.209 4.221 4.499 4.499 0 0 1-3.2 1.325c-.624 0-1.23-.125-1.801-.371l-.332-.143-10.821 10.823.143.332zm17.331 6.319c-.302.302-.704.469-1.131.469s-.829-.167-1.131-.469l-5.654-5.654 2.262-2.262 5.655 5.655a1.6 1.6 0 0 1 .001 2.261z"/></symbol><symbol id="sprite-trophy"><path fill-rule="evenodd" fill="#FFF" d="M29.338 9.104c-1.072 1.326-2.727 2.003-4.901 2.038-1.203 3.588-4.234 6.242-7.88 6.63v6.587h2.899c.518 0 .938.424.938.946 0 .523-.42.946-.938.946h-7.581a.941.941 0 0 1-.938-.946c0-.522.419-.946.938-.946h2.807v-6.588c-3.643-.396-6.669-3.053-7.867-6.641-2.098-.064-3.708-.731-4.755-2.026C.234 6.846.863 3.532.89 3.395a.94.94 0 0 1 .919-.756h4.448v-.944c0-.523.42-.946.938-.946h16.867a.94.94 0 0 1 .937.946v.944h4.59a.94.94 0 0 1 .919.756c.027.137.657 3.451-1.17 5.709zM2.648 4.531c-.042.86.041 2.364.872 3.384.609.749 1.578 1.17 2.849 1.293a10.831 10.831 0 0 1-.112-1.484V4.531H2.648zm20.476-1.89H8.133v5.083c0 4.525 3.363 8.207 7.497 8.207 4.132 0 7.494-3.682 7.494-8.207V2.641zm1.875 1.89v3.193c0 .509-.045 1.005-.113 1.494 1.342-.103 2.361-.526 2.993-1.303.83-1.02.914-2.523.872-3.384h-3.752zM9.072 27.226h13.186c.519 0 .938.423.938.946a.94.94 0 0 1-.938.945H9.072a.94.94 0 0 1-.937-.945.94.94 0 0 1 .937-.946z"/></symbol><symbol id="sprite-twitter" viewBox="0 0 92 74.77"><path d="M92 8.85a37.76 37.76 0 0 1-10.84 3 18.93 18.93 0 0 0 8.3-10.44 37.84 37.84 0 0 1-12 4.58 18.89 18.89 0 0 0-32.15 17.14A53.58 53.58 0 0 1 6.41 3.41a18.89 18.89 0 0 0 5.84 25.2 18.8 18.8 0 0 1-8.55-2.36v.24A18.89 18.89 0 0 0 18.84 45a18.89 18.89 0 0 1-8.52.32 18.9 18.9 0 0 0 17.63 13.11A38.06 38.06 0 0 1 .01 66.24a53.4 53.4 0 0 0 28.93 8.48c34.72 0 53.7-28.76 53.7-53.71q0-1.22-.05-2.44A38.32 38.32 0 0 0 92 8.85z"/></symbol><symbol id="sprite-user"><path d="M16 3.205C8.933 3.205 3.205 8.933 3.205 16S8.933 28.795 16 28.795 28.795 23.067 28.795 16 23.067 3.205 16 3.205zm0 1.066c6.467 0 11.729 5.261 11.729 11.729 0 2.845-1.019 5.457-2.711 7.49-1.169-.488-3.93-1.446-5.638-1.951-.146-.046-.169-.053-.169-.66 0-.501.206-1.005.407-1.432a7.34 7.34 0 0 0 .569-1.944c.259-.301.612-.895.839-2.026.199-.997.106-1.36-.026-1.7-.014-.036-.028-.071-.039-.107-.05-.234.019-1.448.189-2.391.118-.647-.03-2.022-.921-3.159-.562-.719-1.638-1.601-3.603-1.724l-1.078.001c-1.932.122-3.008 1.004-3.57 1.723-.89 1.137-1.038 2.513-.92 3.159.172.943.239 2.157.191 2.387-.01.04-.025.075-.04.111-.131.341-.225.703-.025 1.7.226 1.131.579 1.725.839 2.026.092.7.35 1.48.569 1.944.159.339.234.801.234 1.454 0 .607-.023.614-.159.657-1.767.522-4.579 1.538-5.628 1.997A11.673 11.673 0 0 1 4.271 16C4.271 9.533 9.532 4.271 16 4.271zM7.811 24.386a67.644 67.644 0 0 1 5.167-1.808c.914-.288.914-1.058.914-1.677 0-.513-.035-1.269-.335-1.908-.206-.438-.442-1.189-.494-1.776a.526.526 0 0 0-.18-.355c-.151-.132-.458-.616-.654-1.593-.155-.773-.089-.942-.026-1.106.027-.07.053-.139.074-.216.128-.468-.015-2.005-.17-2.858-.068-.371.018-1.424.711-2.311.622-.795 1.563-1.238 2.764-1.315l1.011-.001c1.233.078 2.174.521 2.797 1.316.694.887.778 1.94.71 2.312-.154.852-.298 2.39-.17 2.857.022.078.047.147.074.217.064.163.129.333-.025 1.106-.196.977-.504 1.461-.655 1.593a.537.537 0 0 0-.18.355c-.051.588-.286 1.338-.492 1.776-.236.502-.508 1.171-.508 1.886 0 .619 0 1.389.924 1.68a78.558 78.558 0 0 1 5.18 1.77A11.691 11.691 0 0 1 16 27.73a11.69 11.69 0 0 1-8.188-3.342z"/></symbol></svg>