<svg id="clock" xmlns="http://www.w3.org/2000/svg" width="30" height="30"><path fill-rule="evenodd" fill="#FFF" d="M15.041 29.27C7.125 29.27.707 22.852.707 14.933.707 7.015 7.125.596 15.041.596c7.917 0 14.334 6.419 14.334 14.337 0 7.919-6.417 14.337-14.334 14.337zm0-26.882c-6.916 0-12.542 5.628-12.542 12.545s5.626 12.573 12.542 12.573c6.916 0 12.542-5.656 12.542-12.573 0-6.917-5.626-12.545-12.542-12.545zm3.857 17.678l-4.434-4.435c-.014-.014-.018-.033-.031-.047a.89.89 0 0 1-.288-.651v-8.96a.896.896 0 1 1 1.792 0v8.596l4.229 4.23a.897.897 0 0 1-1.268 1.267z"/></svg>