<svg id="dribble" xmlns="http://www.w3.org/2000/svg" viewBox="0 0 92 92"><path d="M43.8 33.1a237.32 237.32 0 0 0-14.59-22.64A39.35 39.35 0 0 0 7.53 37.89 145.28 145.28 0 0 0 43.8 33.1zm4.89 13.2l1.55-.47c-1-2.23-2.06-4.47-3.19-6.68a144 144 0 0 1-40.33 5.6v1.24A39.14 39.14 0 0 0 16.8 72.27s10.72-19.12 31.91-26zM21.83 76.97c-.29-.23-.6-.44-.89-.68zM36.56 7.86h-.1.1zm35.36 8.66a39.24 39.24 0 0 0-35.2-8.69 200.62 200.62 0 0 1 14.69 22.92c14.83-5.56 20.39-14.07 20.53-14.24zM45.97 92a46 46 0 1 1 46-46A46 46 0 0 1 46 92zm6.68-39.57c-23.06 8-30.67 24.19-30.82 24.52a39.23 39.23 0 0 0 39.47 5.22 163.33 163.33 0 0 0-8.39-29.83zm1.77-15.83c.92 1.87 1.8 3.78 2.61 5.7q.44 1 .85 2a91 91 0 0 1 27.36 1.28 39.1 39.1 0 0 0-8.93-24.56c-.06.14-6.36 9.25-21.86 15.57zm5.85 13.93a169.78 169.78 0 0 1 7.65 28.06A39.29 39.29 0 0 0 84.8 52.27a57 57 0 0 0-24.5-1.75z"/></svg>