<svg xmlns="http://www.w3.org/2000/svg" viewBox="0 0 70 100"><path d="M6.27 98.81c1.53-5 3.85-12.06 7-22.25C26.8 74.37 32.4 78.3 41 62.63c-7 2.18-15.39-4-14.93-6.74s19.56 1.94 32.08-16.19c-15.77 3.55-20.82-4.26-18.78-5.44 4.7-2.73 18.63-1.13 26.06-8.52 3.83-3.8 5.62-13 4.07-16.34-1.87-4-13.28-9.92-19.57-9.37S33.71 24.48 30.79 24.3s-3.51-10.7 1.59-20.47c-5.39 2.43-15.25 10-18.35 16.46-5.76 12 .54 39.62-1.48 40.6S3.72 48.23 1.69 42.04c-2.77 9.48-2.84 19 5.27 31.6a88.56 88.56 0 0 0-5 22.65c-.1 3.88 3.64 4.71 4.31 2.52z" fill="#4c76ff"/></svg>