<svg id="friends" xmlns="http://www.w3.org/2000/svg" width="30" height="30"><path fill-rule="evenodd" fill="#FFF" d="M27.448 24.682h-2.942c-.209-.781-.373-1.364-.913-1.772h3.579v-1.575a2.537 2.537 0 0 0-.41-.229 2.447 2.447 0 0 1-.163-.079l-5.665-3.089a1.775 1.775 0 0 1-.918-1.408 1.777 1.777 0 0 1 .671-1.541c1.53-1.202 2.044-3.852 2.044-5.239V6.009c0-1.303-2.35-3.492-4.911-3.492a5.522 5.522 0 0 0-3.398 1.159c-.696-.221-1.5-.222-2.23-.267C13.472 1.913 15.67.746 17.82.746c3.308 0 6.685 2.786 6.685 5.263V9.75c0 1.796-.647 5.002-2.722 6.632l5.665 3.09s1.497.616 1.497 1.496v2.218c0 .826-.671 1.496-1.497 1.496zM18.299 10.42v3.741c0 1.797-.563 5.002-2.638 6.633l5.582 3.089s1.497.616 1.497 1.496v2.245c0 .827-.671 1.497-1.497 1.497H2.071c-.825 0-1.496-.67-1.496-1.497v-2.245c0-.83 1.496-1.496 1.496-1.496l5.727-3.103C5.702 19.1 5.01 15.795 5.01 14.161V10.42c0-2.476 3.381-5.236 6.688-5.236 3.308 0 6.601 2.76 6.601 5.236zm-1.773 0c0-1.303-2.267-3.464-4.828-3.464-2.514 0-4.915 2.192-4.915 3.464v3.741c0 1.407.637 4.045 2.124 5.236a1.773 1.773 0 0 1-.264 2.94L2.916 25.44c-.039.023-.081.042-.123.061a2.96 2.96 0 0 0-.445.264v1.584h18.619v-1.603a2.537 2.537 0 0 0-.41-.229 2.23 2.23 0 0 1-.163-.079l-5.582-3.089a1.775 1.775 0 0 1-.918-1.407 1.775 1.775 0 0 1 .671-1.541c1.53-1.203 1.961-3.853 1.961-5.24V10.42z"/></svg>