<svg id="google" xmlns="http://www.w3.org/2000/svg" viewBox="0 0 89.61 88"><path d="M4.75 21.94c0 7.47 2.49 12.86 7.41 16a21.12 21.12 0 0 0 11.13 3h1.39a14.35 14.35 0 0 0 2.95 10h-.17c-6.45 0-27.47 1.35-27.47 18.63 0 17.59 19.31 18.48 23.18 18.48h1.27a35.76 35.76 0 0 0 14.88-3.21c7.74-3.76 11.67-10.29 11.67-19.42 0-8.83-6-14.08-10.35-17.92-2.67-2.34-5-4.36-5-6.32s1.68-3.5 3.81-5.41c3.45-3.08 6.69-7.47 6.69-15.75 0-7.29-.95-12.18-6.77-15.28a20.61 20.61 0 0 1 3.81-.68c3.15-.43 7.77-.92 7.77-3.5v-.5h-23c-.18-.05-23.2.8-23.2 21.88zM41.87 67c.44 7-5.58 12.22-14.61 12.88S10.53 76.42 10.09 69.4a11.61 11.61 0 0 1 4.18-9.32 19 19 0 0 1 11.39-4.64c.52 0 1-.05 1.55-.05 8.49.05 14.24 4.99 14.66 11.62zm-6-49.88c2.26 7.93-1.15 16.23-6.58 17.76a7.11 7.11 0 0 1-1.92.26c-5 0-9.9-5-11.72-12a17.3 17.3 0 0 1 .23-10.57c1.15-3.22 3.21-5.39 5.81-6.12a7.07 7.07 0 0 1 1.92-.27c5.99.06 9.87 2.55 12.26 10.95zM74.6 34.44v-15h-9.5v15h-15v9.5h15v15h9.5v-15h15v-9.5z"/></svg>