<svg id="heart" xmlns="http://www.w3.org/2000/svg" viewBox="0 0 86 70"><path d="M78.95 5.76a22.78 22.78 0 0 0-30.27 0L43 10.97l-5.68-5.21a22.78 22.78 0 0 0-30.27 0 20.84 20.84 0 0 0 0 31.25l35.95 33 35.95-33a20.84 20.84 0 0 0 0-31.25zm-5.32 26.12L43.01 60.45 12.39 31.88a13.69 13.69 0 0 1-4.28-10.5c0-3.93.69-7.16 3.78-10A15.15 15.15 0 0 1 22.21 7.5c3.92 0 7.59 2.38 10.32 4.88l10.5 9.13 10.49-9.13c2.73-2.51 6.39-4.88 10.32-4.88a15.16 15.16 0 0 1 10.32 3.88c3.09 2.83 3.78 6.06 3.78 10a13.7 13.7 0 0 1-4.32 10.5z"/></svg>