<svg id="megaphone" xmlns="http://www.w3.org/2000/svg" viewBox="0 0 105 105"><path d="M79.12 30.15C71.2 11.73 58.46-2.3 52.01.32 41.06 4.77 58.53 26.14 4.78 47.99c-4.64 1.89-5.82 9.44-3.88 14s8.29 9 12.94 7.12c.8-.33 3.75-1.28 3.75-1.28 3.32 4.45 6.79 1.81 8 4.64l5.79 13.3c1.1 2.51 3.58 4.84 5.38 4.15l10.25-3.9a3.38 3.38 0 0 0 2.18-4.62c-.77-1.77-3.93-2.29-4.83-4.36s-3.85-8.7-4.7-10.78c-1.15-2.84 1.29-5.15 4.85-5.52 24.47-2.55 29 12.56 37.37 9.17 6.43-2.63 5.15-21.34-2.76-39.76zm-2.76 29.88c-1.43.58-11.06-7-17.21-21.33s-5.38-27.41-3.95-28 10.82 8.58 17 22.9 5.59 25.85 4.16 26.43z" fill="#4c76ff"/></svg>