<?xml version="1.0" encoding="utf-8"?>
<!-- Generator: Adobe Illustrator 21.0.0, SVG Export Plug-In . SVG Version: 6.00 Build 0)  -->
<svg version="1.1" id="Слой_1" xmlns="http://www.w3.org/2000/svg" xmlns:xlink="http://www.w3.org/1999/xlink" x="0px" y="0px"
	 viewBox="0 0 127.3 130" style="enable-background:new 0 0 127.3 130;" xml:space="preserve">
<path d="M45.6,109.9c-0.8-1.1-1.7-1.7-2.8-2.6c-2.4-1.9-7.4-7.1-10-7.7c0.5,1.7,2.3,3.7,3.6,5.2l2.9,3.5c0.5,0.6,0.7,0.9,1.1,1.2
	c1.4,1.2,2.8,2.9,4.3,4.2c1.9,1.5,4.5,0.9,7.2,0.5c9-1.2,31.5-2.7,38.2-4.5c2.2-0.6,4.1-1.4,6-2.6c7.2-4.1,13.9-13.5,11.6-22.2
	c-0.9-3.5-2.8-7.2-4.7-10c-0.5-0.7-0.1-1-1.2-1.2c-1,8.5-0.7,9.6-2.6,17.5l-0.7,2.2c-1.8,4.3-1.1,4.1-4.7,6.7
	c-3.8,2.7-8.8,4-13.2,5.5c-0.1,0-0.3,0.1-0.5,0.2C72.3,108.6,53.6,110.1,45.6,109.9L45.6,109.9z"/>
<path d="M25.6,83.3c1.1-0.2,0.7,0,1.2-0.5l2.5-2.3c3.1-2.9,8.1-6.9,8.8-11.1c0.7-4.1-0.7-8.6-0.2-12.7c0.5-3.7,4.9-6.6,7.5-9
	l6.5-4.9c0.5-0.3,0.6-0.4,1-0.7l11.4-6.7c0.5-0.2,0.8-0.4,1-0.6c0.9-0.5,1.5-0.7,2.4-1.1l6.5-3.4c0.8-0.5,1.5-0.6,1.9-1.6
	c-0.9-0.5-1.1-0.5-2.9-0.3c-6,0.3-15.6,3.1-20.9,6.4c-2.3,1.4-7.5,5.8-9.4,7.6c-1.3,1.2-2.4,2.3-3.5,3.5c-2.2,2.4-4.3,5-5.7,7.8
	c-4.6,9.5,5.4,10.4-2.8,21.6C30,76.6,26,82.1,25.6,83.3L25.6,83.3z"/>
<path d="M97.9,63c2.2,1.3,4.5-1.8,5.7-3.5l2.5-3.7c1.5-2.7,1.9-5.4,2.5-8.1c1.2-5.9,0.3-15.6-1.5-21.3c-0.4-1.3-0.8-2.7-1.3-4
	c-1.5-4.3-4.7-9.2-7.6-12.8c-0.4-0.5-0.8-1-1.2-1.4c-0.7-0.8-0.4-0.7-1.8-1c0.2,2.1,2.4,7.3,2.9,9.6c0.3,1.2,0.5,2.2,0.8,3.4
	c3.7,13.8,4.2,14.9,0.8,28.4C99.1,51.6,96.7,60.3,97.9,63L97.9,63z"/>
<path d="M75.7,37c3.9,2.5,5-1.3,7.9-6l2.9-4.7c2-2.8,4.2-6.4,6.4-9c0.7-0.8,0.5-0.3,0.8-1.5c-1,0.3-4.7,2.8-5.8,3.6
	C83.7,22.7,75.6,31.2,75.7,37L75.7,37z"/>
<path d="M63.1,26.9c-0.2-1.6-1.7-2.3-3.2-3.5l-7.4-4.8c-3.2-1.7-10-5.6-13.1-5.9c0.3,1.9,9.5,8.9,11.9,10.7l4.6,3.1
	C57.6,27.5,60.9,29.6,63.1,26.9L63.1,26.9z"/>
<path d="M55,73.7c3.8,0.1,16.7-0.4,20.5-2.4c0.9-0.5,0.3,0.1,0.8-0.9c-2.2-1.4-8.6-0.2-11.3,0.1C62.7,70.9,56,71.7,55,73.7L55,73.7z
	"/>
<path d="M42.6,36.4c5.3,0.1,1.4-13.8,0-14.5C40.9,22.8,41.4,34.7,42.6,36.4z"/>
<path d="M31.6,90.3c-1.3-1.6-6.1-1.6-8.1-1.5C23.3,92.7,29.9,93.6,31.6,90.3z"/>
</svg>
