<svg id="rocket" xmlns="http://www.w3.org/2000/svg" width="24" height="24"><path fill-rule="evenodd" fill="#FFF" d="M22.928 8.964c-.527 1.419-1.064 2.38-2.537 3.689-1.046.931-3.57 2.107-5.26 3.052-.621.347-1.28.703-1.652.934v3.854a.742.742 0 0 1-.261.566l-2.766 2.752a.744.744 0 0 1-1.212-.394l-.909-3.844-1.687-1.871c-.809-.899-1.315-1.459-1.619-1.834L.571 14.849a.747.747 0 0 1-.392-1.224l2.736-2.966a.747.747 0 0 1 .559-.252h4.153c.259-.464.563-1.072.882-1.708.825-1.647 1.76-3.631 2.7-4.728 1.129-1.316 2.337-2.185 3.806-2.734C19.034-.264 23.213.041 23.213.041a.746.746 0 0 1 .69.699c.012.196.279 4.848-.975 8.224zm-.493-7.456c-1.3-.01-4.143.099-6.898 1.129-1.238.462-2.224 1.173-3.194 2.306-.821.958-1.752 2.932-2.499 4.425-.442.881-.823 1.642-1.151 2.177a.748.748 0 0 1-.636.356H3.81l-1.678 1.773 3.42.783a.748.748 0 0 1 .41.253c.159.182 2.233 2.483 3.606 4.005a.737.737 0 0 1 .172.328l.671 2.837 1.575-1.731v-3.903c0-.224.101-.437.275-.578.302-.247.991-.623 2.141-1.266 1.542-.862 4.072-2.042 4.997-2.865 1.253-1.113 1.669-1.855 2.129-3.093.88-2.367.931-5.559.907-6.936zm-5.97 8.94a2.998 2.998 0 0 1-2.995-2.995 2.999 2.999 0 0 1 2.995-2.995 2.999 2.999 0 0 1 2.994 2.995 2.998 2.998 0 0 1-2.994 2.995zm0-4.49c-.825 0-1.495.671-1.495 1.495 0 .824.67 1.495 1.495 1.495.824 0 1.494-.671 1.494-1.495 0-.824-.67-1.495-1.494-1.495zM2.384 17.782c.382-.19.777-.364 1.206-.693l.91 1.161c-.544.417-1.046.667-1.45.869-.961.479-1.441.749-1.516 3.268 2.611-.094 2.907-.745 3.376-1.72.183-.379.39-.81.723-1.263L6.74 20.41c-.274.455-.365.683-.527 1.02-.741 1.541-1.481 2.434-5.438 2.434l-.734.017-.013-.763c0-3.751.755-4.537 2.356-5.336z"/></svg>