<svg id="twitter" xmlns="http://www.w3.org/2000/svg" viewBox="0 0 92 74.77"><path d="M92 8.85a37.76 37.76 0 0 1-10.84 3 18.93 18.93 0 0 0 8.3-10.44 37.84 37.84 0 0 1-12 4.58 18.89 18.89 0 0 0-32.15 17.14A53.58 53.58 0 0 1 6.41 3.41a18.89 18.89 0 0 0 5.84 25.2 18.8 18.8 0 0 1-8.55-2.36v.24A18.89 18.89 0 0 0 18.84 45a18.89 18.89 0 0 1-8.52.32 18.9 18.9 0 0 0 17.63 13.11A38.06 38.06 0 0 1 .01 66.24a53.4 53.4 0 0 0 28.93 8.48c34.72 0 53.7-28.76 53.7-53.71q0-1.22-.05-2.44A38.32 38.32 0 0 0 92 8.85z"/></svg>